<svg  width="350" height="140" viewBox="-23 0 511 512" xmlns="http://www.w3.org/2000/svg"><path d="m448.398438 288.613281h-57.519532v9.644531c0 13.777344-11.238281 24.988282-25.054687 24.988282-1.34375 0-2.664063-.109375-3.953125-.3125v135.3125h96.410156c2.988281 0 5.40625-2.414063 5.40625-5.394532v-148.984374c0-8.410157-6.859375-15.253907-15.289062-15.253907zm0 0" fill="#64cbff"/><path d="m417.429688 66.332031h-65.847657v58.019531h84c1.707031 0 3.09375 1.382813 3.09375 3.082032v42.367187h10.65625c3.082031 0 5.949219.882813 8.398438 2.386719v-65.546875c0-22.226563-18.078125-40.308594-40.300781-40.308594zm0 0" fill="#242b30"/><path d="m365.824219 281.660156c-9.179688 0-17.957031-1.71875-26.054688-4.820312v12.773437h2.878907c10.601562 0 19.222656 8.5625 19.222656 19.085938v15.246093c1.289062.195313 2.609375.296876 3.953125.296876 14.390625 0 26.054687-11.632813 26.054687-25.988282v-21.417968c-8.097656 3.105468-16.875 4.824218-26.054687 4.824218zm0 0" fill="#aa8465"/><path d="m449.332031 168.800781h-10.65625v40.191407c0 2.9375-.195312 5.832031-.539062 8.679687h11.195312c9.433594 0 17.074219-7.625 17.074219-17.03125v-14.8125c0-9.402344-7.644531-17.027344-17.074219-17.027344zm0 0" fill="#aa8465"/><path d="m435.582031 123.351562h-84v12.15625l.617188.253907c8.058593 3.34375 13.265625 11.105469 13.265625 19.777343v19.503907c0 11.816406-9.679688 21.429687-21.574219 21.429687h-14.339844l-.105469.882813c-2.410156 20.3125-11.140624 38.804687-24.46875 53.324219 13.332032 19.296874 35.628907 31.980468 60.847657 31.980468 40.722656 0 73.851562-33.046875 73.851562-73.667968v-81.558594c0-2.253906-1.832031-4.082032-4.09375-4.082032zm0 0" fill="#c6a07d"/><path d="m376.828125 206.515625h-10.875v-33.515625c0-.929688-.175781-1.816406-.488281-2.640625v4.683594c0 9.355469-6.078125 17.3125-14.511719 20.226562v13.59375c0 6.976563 5.675781 12.652344 12.65625 12.652344h13.21875c4.144531 0 7.5-3.359375 7.5-7.5 0-4.144531-3.355469-7.5-7.5-7.5zm0 0" fill="#775436"/><path d="m401.535156 197.484375c-4.140625 0-7.5-3.359375-7.5-7.5v-13.222656c0-4.140625 3.359375-7.5 7.5-7.5 4.144532 0 7.5 3.359375 7.5 7.5v13.222656c0 4.140625-3.355468 7.5-7.5 7.5zm0 0" fill="#775436"/><path d="m365.824219 255.960938c-10.804688 0-21.601563-4.101563-29.828125-12.308594-2.933594-2.925782-2.9375-7.671875-.011719-10.605469 2.921875-2.933594 7.671875-2.9375 10.605469-.011719 10.605468 10.578125 27.863281 10.578125 38.472656 0 2.929688-2.925781 7.679688-2.921875 10.605469.011719s2.917969 7.683594-.015625 10.605469c-8.222656 8.203125-19.027344 12.308594-29.828125 12.308594zm0 0" fill="#775436"/><path d="m385.128906 164.03125c-1.921875 0-3.84375-.730469-5.3125-2.203125-2.921875-2.929687-2.917968-7.679687.011719-10.605469 11.730469-11.699218 30.804687-11.699218 42.527344 0 2.933593 2.925782 2.941406 7.675782.011719 10.605469-2.925782 2.933594-7.671876 2.9375-10.605469.015625-5.878907-5.871094-15.453125-5.871094-21.335938 0-1.464843 1.460938-3.382812 2.1875-5.296875 2.1875zm0 0" fill="#242b30"/><path d="m105.035156 322.929688c-1.289062.207031-2.609375.316406-3.953125.316406-13.816406 0-25.054687-11.210938-25.054687-24.992188v-9.640625h-57.519532c-8.433593 0-15.292968 6.839844-15.292968 15.25v148.988281c0 2.976563 2.421875 5.390626 5.40625 5.390626h96.414062zm0 0" fill="#64cbff"/><path d="m115.324219 66.332031h-65.847657c-22.21875 0-40.300781 18.082031-40.300781 40.308594v65.546875c2.445313-1.503906 5.316407-2.386719 8.398438-2.386719h10.65625v-42.367187c0-1.699219 1.386719-3.082032 3.089843-3.082032h84.003907zm0 0" fill="#dd7814"/><path d="m105.035156 308.699219c0-10.523438 8.621094-19.085938 19.222656-19.085938h2.878907v-12.773437c-8.097657 3.101562-16.875 4.820312-26.054688 4.820312-9.179687 0-17.957031-1.71875-26.054687-4.820312v21.417968c0 14.351563 11.664062 25.988282 26.054687 25.988282 1.34375 0 2.664063-.101563 3.953125-.296875zm0 0" fill="#f7c39f"/><path d="m28.230469 208.992188v-40.191407h-10.65625c-9.429688 0-17.074219 7.625-17.074219 17.027344v14.8125c0 9.40625 7.644531 17.03125 17.074219 17.03125h11.195312c-.34375-2.847656-.539062-5.742187-.539062-8.679687zm0 0" fill="#f7c39f"/><path d="m137.460938 197.355469-.105469-.882813h-14.335938c-11.898437 0-21.578125-9.613281-21.578125-21.429687v-19.503907c0-8.667968 5.207032-16.433593 13.265625-19.773437l.617188-.257813v-12.15625h-84c-2.261719 0-4.09375 1.828126-4.09375 4.082032v81.558594c0 40.621093 33.128906 73.667968 73.851562 73.667968 25.21875 0 47.515625-12.679687 60.847657-31.980468-13.328126-14.523438-22.058594-33.015626-24.46875-53.324219zm0 0" fill="#ffb98a"/><path d="m101.082031 255.960938c-10.804687 0-21.605469-4.105469-29.832031-12.308594-2.933594-2.921875-2.9375-7.671875-.011719-10.605469 2.921875-2.933594 7.671875-2.9375 10.605469-.011719 10.605469 10.578125 27.867188 10.578125 38.472656 0 2.929688-2.925781 7.679688-2.921875 10.605469.011719s2.917969 7.679687-.015625 10.605469c-8.21875 8.203125-19.023438 12.308594-29.824219 12.308594zm0 0" fill="#775436"/><path d="m82.132812 164.03125c-1.914062 0-3.832031-.726562-5.296874-2.1875-5.882813-5.871094-15.453126-5.871094-21.339844 0-2.929688 2.921875-7.679688 2.917969-10.605469-.015625-2.925781-2.929687-2.917969-7.679687.011719-10.605469 11.726562-11.695312 30.800781-11.699218 42.527344 0 2.933593 2.925782 2.9375 7.675782.011718 10.605469-1.464844 1.472656-3.386718 2.203125-5.308594 2.203125zm0 0" fill="#dd7814"/><path d="m65.371094 197.484375c-4.144532 0-7.5-3.359375-7.5-7.5v-13.222656c0-4.140625 3.355468-7.5 7.5-7.5 4.140625 0 7.5 3.359375 7.5 7.5v13.222656c0 4.140625-3.359375 7.5-7.5 7.5zm0 0" fill="#775436"/><path d="m112.453125 206.515625h-10.875v-29.117187c-.085937-.777344-.136719-1.558594-.136719-2.355469v-3.457031c-.664062-3.464844-3.707031-6.085938-7.363281-6.085938-4.144531 0-7.5 3.355469-7.5 7.5v35.863281c0 6.976563 5.675781 12.652344 12.65625 12.652344h13.21875c4.140625 0 7.5-3.359375 7.5-7.5 0-4.144531-3.359375-7.5-7.5-7.5zm0 0" fill="#775436"/><path d="m342.652344 288.613281h-75.746094v11.871094c0 18.320313-15.007812 33.226563-33.453125 33.226563s-33.457031-14.90625-33.457031-33.226563v-11.871094h-75.742188c-11.148437 0-20.222656 9.011719-20.222656 20.085938v198.117187c0 2.863282 2.328125 5.183594 5.195312 5.183594h248.453126c2.867187 0 5.191406-2.320312 5.191406-5.183594v-198.117187c0-11.074219-9.070313-20.085938-20.21875-20.085938zm0 0" fill="#a2f9f9"/><path d="m300.347656 0h-177.316406c-4.808594 0-8.707031 3.871094-8.707031 8.648438v127.296874c2.664062-1.167968 5.601562-1.832031 8.695312-1.832031h13.769531v-55.472656c0-2.414063 1.980469-4.378906 4.414063-4.378906h184.496094c2.4375 0 4.417969 1.964843 4.417969 4.378906v55.472656h13.769531c3.09375 0 6.03125.664063 8.695312 1.832031v-84.054687c0-28.613281-23.429687-51.890625-52.234375-51.890625zm0 0" fill="#775436"/><path d="m233.453125 282.058594c-12.132813 0-23.746094-2.238282-34.457031-6.3125v24.738281c0 18.902344 15.429687 34.226563 34.457031 34.226563s34.453125-15.324219 34.453125-34.226563v-24.738281c-10.707031 4.074218-22.320312 6.3125-34.453125 6.3125zm0 0" fill="#ffb98a"/><path d="m233.453125 474.769531c-1.726563 0-3.453125-.65625-4.773437-1.964843l-56.539063-56.164063c-13.027344-12.941406-13.027344-33.988281 0-46.925781 6.304687-6.265625 14.695313-9.71875 23.617187-9.71875 8.921876 0 17.308594 3.453125 23.621094 9.71875l14.074219 13.984375 14.078125-13.984375c6.3125-6.265625 14.695312-9.71875 23.617188-9.71875 8.921874 0 17.3125 3.453125 23.621093 9.71875 13.023438 12.9375 13.023438 33.988281 0 46.925781l-56.542969 56.164063c-1.320312 1.308593-3.050781 1.964843-4.773437 1.964843zm0 0" fill="#fb8276"/><path d="m209.011719 412.59375c-4.140625 0-7.5-3.355469-7.5-7.5v-5.710938c0-4.140624 3.359375-7.5 7.5-7.5s7.5 3.359376 7.5 7.5v5.710938c0 4.144531-3.359375 7.5-7.5 7.5zm0 0" fill="#c0272d"/><path d="m257.894531 412.59375c-4.144531 0-7.5-3.355469-7.5-7.5v-5.710938c0-4.140624 3.355469-7.5 7.5-7.5 4.140625 0 7.5 3.359376 7.5 7.5v5.710938c0 4.144531-3.359375 7.5-7.5 7.5zm0 0" fill="#c0272d"/><path d="m233.453125 444.488281c-10.476563 0-19-8.488281-19-18.925781 0-4.140625 3.359375-7.5 7.5-7.5s7.5 3.359375 7.5 7.5c0 2.164062 1.792969 3.925781 4 3.925781s4-1.761719 4-3.925781c0-4.140625 3.359375-7.5 7.5-7.5 4.144531 0 7.5 3.359375 7.5 7.5 0 10.4375-8.523437 18.925781-19 18.925781zm0 0" fill="#c0272d"/><path d="m136.789062 186.042969v-52.929688h-13.769531c-12.46875 0-22.578125 10.042969-22.578125 22.425781v19.503907c0 12.390625 10.109375 22.429687 22.578125 22.429687h14.457031c-.449218-3.75-.6875-7.5625-.6875-11.429687zm0 0" fill="#f7c39f"/><path d="m343.886719 133.113281h-13.769531v52.929688c0 3.867187-.238282 7.679687-.6875 11.429687h14.457031c12.472656 0 22.578125-10.039062 22.578125-22.429687v-19.503907c0-12.382812-10.105469-22.425781-22.578125-22.425781zm0 0" fill="#f7c39f"/><path d="m233.453125 283.058594c-53.851563 0-97.664063-43.523438-97.664063-97.015625v-107.402344c0-2.972656 2.425782-5.378906 5.414063-5.378906h184.496094c2.992187 0 5.417969 2.40625 5.417969 5.378906v107.402344c0 53.492187-43.8125 97.015625-97.664063 97.015625zm0 0" fill="#ffd5b3"/><g fill="#775436"><path d="m242.640625 201.878906h-13.21875c-6.980469 0-12.65625-5.675781-12.65625-12.652344v-35.863281c0-4.140625 3.355469-7.5 7.5-7.5 4.140625 0 7.5 3.359375 7.5 7.5v33.515625h10.875c4.140625 0 7.5 3.359375 7.5 7.5s-3.359375 7.5-7.5 7.5zm0 0"/><path d="m233.453125 244.917969c-13.664063 0-27.328125-5.167969-37.730469-15.5-2.9375-2.917969-2.953125-7.667969-.035156-10.605469 2.921875-2.941406 7.667969-2.957031 10.609375-.035156 14.972656 14.875 39.339844 14.875 54.3125 0 2.941406-2.921875 7.691406-2.90625 10.609375.035156 2.917969 2.9375 2.902344 7.6875-.035156 10.605469-10.402344 10.332031-24.066406 15.5-37.730469 15.5zm0 0"/><path d="m203.902344 129c-1.914063 0-3.824219-.726562-5.289063-2.179688-8.726562-8.671874-22.925781-8.671874-31.652343 0-2.941407 2.917969-7.6875 2.902344-10.609376-.035156-2.917968-2.9375-2.902343-7.6875.035157-10.605468 14.558593-14.460938 38.242187-14.460938 52.800781 0 2.9375 2.917968 2.953125 7.667968.035156 10.605468-1.464844 1.476563-3.394531 2.214844-5.320312 2.214844zm0 0"/><path d="m305.234375 129c-1.914063 0-3.824219-.726562-5.285156-2.179688-8.730469-8.667968-22.933594-8.667968-31.664063 0-2.9375 2.917969-7.683594 2.902344-10.605468-.035156-2.917969-2.9375-2.902344-7.6875.035156-10.605468 14.554687-14.460938 38.242187-14.460938 52.800781 0 2.9375 2.917968 2.957031 7.667968.039063 10.605468-1.464844 1.476563-3.394532 2.214844-5.320313 2.214844zm0 0"/><path d="m184.472656 173.875c-4.144531 0-7.5-3.359375-7.5-7.5v-21.636719c0-4.140625 3.355469-7.5 7.5-7.5 4.140625 0 7.5 3.359375 7.5 7.5v21.636719c0 4.140625-3.359375 7.5-7.5 7.5zm0 0"/><path d="m282.433594 173.875c-4.140625 0-7.5-3.359375-7.5-7.5v-21.636719c0-4.140625 3.359375-7.5 7.5-7.5s7.5 3.359375 7.5 7.5v21.636719c0 4.140625-3.355469 7.5-7.5 7.5zm0 0"/></g></svg>