<svg width="350" height="140" viewBox="-3 0 512 512" xmlns="http://www.w3.org/2000/svg"><path d="m0 181.144531v296.898438c0 18.753906 15.203125 33.957031 33.957031 33.957031h438.929688c18.753906 0 33.957031-15.203125 33.957031-33.957031v-296.898438zm0 0" fill="#dce1ea"/><path d="m506.84375 33.957031c0-18.753906-15.203125-33.957031-33.957031-33.957031h-438.929688c-18.753906 0-33.957031 15.203125-33.957031 33.957031v147.1875h506.84375zm0 0" fill="#e01f26"/><path d="m33.957031 0c-18.753906 0-33.957031 15.203125-33.957031 33.957031v147.1875h253.421875v-181.144531zm0 0" fill="#ff432e"/><path d="m0 181.144531v296.898438c0 18.753906 15.203125 33.957031 33.957031 33.957031h219.464844v-330.855469zm0 0" fill="#f3f5fb"/><path d="m114.082031 35.734375c-8.34375 0-15.105469 6.761719-15.105469 15.105469v42.429687l-42.617187-52.003906c-4.042969-4.9375-10.753906-6.796875-16.765625-4.652344-6.007812 2.148438-10.019531 7.84375-10.019531 14.226563v82.394531c0 8.34375 6.761719 15.105469 15.101562 15.105469 8.34375 0 15.105469-6.761719 15.105469-15.105469v-40.136719l42.617188 52.007813c2.925781 3.570312 7.246093 5.53125 11.683593 5.53125 1.699219 0 3.417969-.289063 5.082031-.882813 6.007813-2.148437 10.019532-7.839844 10.019532-14.222656v-84.691406c0-8.34375-6.761719-15.105469-15.101563-15.105469zm0 0" fill="#ffd97d"/><path d="m217.511719 65.941406c8.339843 0 15.101562-6.761718 15.101562-15.101562 0-8.34375-6.761719-15.105469-15.101562-15.105469h-55.042969c-8.339844 0-15.101562 6.761719-15.101562 15.105469v84.691406c0 8.339844 6.761718 15.105469 15.101562 15.105469h55.042969c8.339843 0 15.101562-6.765625 15.101562-15.105469 0-8.34375-6.761719-15.105469-15.101562-15.105469h-39.9375v-12.347656h19.964843c8.34375 0 15.105469-6.761719 15.105469-15.101563 0-8.34375-6.761719-15.105468-15.105469-15.105468h-19.964843v-11.929688zm0 0" fill="#ffd97d"/><path d="m444.441406 75.703125h-19.820312c-3.117188 0-5.652344-2.191406-5.652344-4.882813 0-2.6875 2.535156-4.878906 5.652344-4.878906h28.394531c8.339844 0 15.101563-6.761718 15.101563-15.101562 0-8.34375-6.761719-15.105469-15.101563-15.105469h-28.394531c-19.773438 0-35.863282 15.742187-35.863282 35.085937 0 19.347657 16.089844 35.089844 35.863282 35.089844h19.820312c3.117188 0 5.652344 2.1875 5.652344 4.878906v4.757813c0 2.691406-2.535156 4.878906-5.652344 4.878906h-35.226562c-8.34375 0-15.105469 6.761719-15.105469 15.105469 0 8.339844 6.761719 15.105469 15.105469 15.105469h35.226562c19.773438 0 35.859375-15.742188 35.859375-35.089844v-4.757813c0-19.347656-16.085937-35.085937-35.859375-35.085937zm0 0" fill="#ffc247"/><path d="m359.621094 35.316406c-8.34375 0-15.105469 6.761719-15.105469 15.101563v70.007812h-20.132813v-32.792969c0-8.34375-6.765624-15.105468-15.105468-15.105468-8.34375 0-15.105469 6.761718-15.105469 15.105468v32.792969h-20.136719v-70.007812c0-8.339844-6.761718-15.101563-15.101562-15.101563-8.34375 0-15.105469 6.761719-15.105469 15.101563v72.0625c0 15.523437 12.855469 28.15625 28.65625 28.15625h23.238281c4.898438 0 9.515625-1.21875 13.554688-3.355469 4.035156 2.136719 8.652344 3.355469 13.550781 3.355469h23.238281c15.800782 0 28.65625-12.628907 28.65625-28.15625v-72.0625c.003906-8.339844-6.757812-15.101563-15.101562-15.101563zm0 0" fill="#ffc247"/><g fill="#195285"><path d="m168.53125 254.203125h-102.074219c-8.339843 0-15.101562-6.761719-15.101562-15.105469 0-8.339844 6.761719-15.101562 15.101562-15.101562h102.070313c8.34375 0 15.105468 6.761718 15.105468 15.101562 0 8.34375-6.761718 15.105469-15.101562 15.105469zm0 0"/><path d="m439.175781 254.203125h-208.554687c-8.339844 0-15.101563-6.761719-15.101563-15.105469 0-8.339844 6.761719-15.101562 15.101563-15.101562h208.554687c8.34375 0 15.105469 6.761718 15.105469 15.101562 0 8.34375-6.761719 15.105469-15.105469 15.105469zm0 0"/><path d="m168.53125 324.058594h-102.074219c-8.339843 0-15.101562-6.761719-15.101562-15.105469 0-8.339844 6.761719-15.101563 15.101562-15.101563h102.070313c8.34375 0 15.105468 6.761719 15.105468 15.101563 0 8.34375-6.761718 15.105469-15.101562 15.105469zm0 0"/><path d="m439.175781 324.058594h-208.554687c-8.339844 0-15.101563-6.761719-15.101563-15.105469 0-8.339844 6.761719-15.101563 15.101563-15.101563h208.554687c8.34375 0 15.105469 6.761719 15.105469 15.101563 0 8.34375-6.761719 15.105469-15.105469 15.105469zm0 0"/><path d="m440.265625 393.914062h-102.074219c-8.339844 0-15.101562-6.761718-15.101562-15.105468 0-8.339844 6.761718-15.105469 15.101562-15.105469h102.074219c8.339844 0 15.101563 6.765625 15.101563 15.105469 0 8.34375-6.761719 15.105468-15.101563 15.105468zm0 0"/><path d="m273.921875 393.914062h-208.554687c-8.339844 0-15.101563-6.761718-15.101563-15.105468 0-8.339844 6.761719-15.105469 15.101563-15.105469h208.554687c8.34375 0 15.105469 6.765625 15.105469 15.105469 0 8.34375-6.765625 15.105468-15.105469 15.105468zm0 0"/><path d="m440.265625 463.769531h-102.074219c-8.339844 0-15.101562-6.761719-15.101562-15.105469s6.761718-15.105468 15.101562-15.105468h102.074219c8.339844 0 15.101563 6.761718 15.101563 15.105468s-6.761719 15.105469-15.101563 15.105469zm0 0"/><path d="m273.921875 463.769531h-208.554687c-8.339844 0-15.101563-6.761719-15.101563-15.105469s6.761719-15.105468 15.101563-15.105468h208.554687c8.34375 0 15.105469 6.761718 15.105469 15.105468s-6.765625 15.105469-15.105469 15.105469zm0 0"/></g><path d="m243.828125 50.417969v72.0625c0 8.339843 3.710937 15.835937 9.59375 20.996093v-107.109374c-5.613281 2.203124-9.59375 7.65625-9.59375 14.050781zm0 0" fill="#ffd97d"/><path d="m66.457031 254.203125h102.070313c8.34375 0 15.105468-6.761719 15.105468-15.105469 0-8.339844-6.761718-15.101562-15.105468-15.101562h-102.070313c-8.339843 0-15.101562 6.761718-15.101562 15.101562 0 8.34375 6.761719 15.105469 15.101562 15.105469zm0 0" fill="#2570b7"/><path d="m230.621094 223.996094c-8.339844 0-15.101563 6.761718-15.101563 15.101562 0 8.34375 6.761719 15.105469 15.101563 15.105469h22.800781v-30.207031zm0 0" fill="#2570b7"/><path d="m66.457031 324.058594h102.070313c8.34375 0 15.105468-6.761719 15.105468-15.105469 0-8.339844-6.761718-15.101563-15.105468-15.101563h-102.070313c-8.339843 0-15.101562 6.761719-15.101562 15.101563 0 8.34375 6.761719 15.105469 15.101562 15.105469zm0 0" fill="#2570b7"/><path d="m230.621094 293.851562c-8.339844 0-15.101563 6.761719-15.101563 15.101563 0 8.34375 6.761719 15.105469 15.101563 15.105469h22.800781v-30.207032zm0 0" fill="#2570b7"/><path d="m65.367188 363.703125c-8.339844 0-15.101563 6.765625-15.101563 15.105469 0 8.34375 6.761719 15.105468 15.101563 15.105468h188.054687v-30.210937zm0 0" fill="#2570b7"/><path d="m50.265625 448.664062c0 8.34375 6.761719 15.105469 15.101563 15.105469h188.054687v-30.210937h-188.054687c-8.339844 0-15.101563 6.761718-15.101563 15.105468zm0 0" fill="#2570b7"/></svg>