<svg height="300pt" viewBox="-56 0 480 480" width="480pt" xmlns="http://www.w3.org/2000/svg"><path d="m48 320h128v88h-128zm0 0" fill="#9bc9ff"/><path d="m288 24-16-16v56h56v384h-304v24h336v-448zm0 0" fill="#9bc9ff"/><g fill="#4f9af5"><path d="m336 60.6875-60.6875-60.6875h-275.3125v456h336zm-56-33.375 28.6875 28.6875h-28.6875zm-264 412.6875v-424h248v56h56v368zm0 0"/><path d="m320 16v16h32v432h-328v16h344v-464zm0 0"/><path d="m56 105.886719 19.054688 38.113281h20.945312v-64h-16v38.113281l-19.054688-38.113281h-20.945312v64h16zm0 0"/><path d="m152 128h-32v-8h32v-16h-32v-8h32v-16h-48v64h48zm0 0"/><path d="m190.777344 144 5.222656-31.335938 5.222656 31.335938h21.714844l8.984375-62.863281-15.84375-2.273438-4.375 30.671875-4.925781-29.535156h-21.554688l-4.925781 29.535156-4.375-30.671875-15.84375 2.273438 8.984375 62.863281zm0 0"/><path d="m240 120h32v8h-32v16h48v-40h-32v-8h32v-16h-48zm0 0"/><path d="m40 192h248v16h-248zm0 0"/><path d="m40 232h80v16h-80zm0 0"/><path d="m144 232h144v16h-144zm0 0"/><path d="m40 272h40v16h-40zm0 0"/><path d="m104 272h128v16h-128zm0 0"/><path d="m256 272h32v16h-32zm0 0"/><path d="m40 416h144v-104h-144zm16-88h112v72h-112zm0 0"/><path d="m208 312h80v16h-80zm0 0"/><path d="m208 352h32v16h-32zm0 0"/><path d="m256 352h32v16h-32zm0 0"/><path d="m208 392h80v16h-80zm0 0"/></g></svg>